<?xml version="1.0" standalone="no"?><!DOCTYPE svg PUBLIC "-//W3C//DTD SVG 1.1//EN" "http://www.w3.org/Graphics/SVG/1.1/DTD/svg11.dtd"><svg t="1760426417002" class="icon" viewBox="0 0 1024 1024" version="1.1" xmlns="http://www.w3.org/2000/svg" p-id="9683" xmlns:xlink="http://www.w3.org/1999/xlink" width="16" height="16"><path d="M0 42.666667a42.666667 42.666667 0 0 1 42.666667-42.666667h640a42.666667 42.666667 0 1 1 0 85.333333H85.333333v853.333334h853.333334V512a42.666667 42.666667 0 1 1 85.333333 0v469.333333a42.666667 42.666667 0 0 1-42.666667 42.666667H42.666667a42.666667 42.666667 0 0 1-42.666667-42.666667V42.666667z" p-id="9684" fill="#cdcdcd"></path><path d="M353.834667 396.501333a42.666667 42.666667 0 0 1 60.330666 0l120.704 120.661334 392.192-392.192a42.666667 42.666667 0 1 1 60.330667 60.330666l-422.4 422.4a42.666667 42.666667 0 0 1-60.330667 0l-150.826666-150.869333a42.666667 42.666667 0 0 1 0-60.330667z" p-id="9685" fill="#cdcdcd"></path></svg>