<?xml version="1.0" standalone="no"?><!DOCTYPE svg PUBLIC "-//W3C//DTD SVG 1.1//EN" "http://www.w3.org/Graphics/SVG/1.1/DTD/svg11.dtd"><svg t="1758877972747" class="icon" viewBox="0 0 1024 1024" version="1.1" xmlns="http://www.w3.org/2000/svg" p-id="6268" xmlns:xlink="http://www.w3.org/1999/xlink" width="200" height="200"><path d="M446.171429 512L14.482286 943.981714a46.665143 46.665143 0 0 0 0 65.828572 46.665143 46.665143 0 0 0 65.682285 0L512 577.536l431.981714 432.128a46.665143 46.665143 0 0 0 65.828572-65.828571L577.536 512 1009.810286 80.018286a46.665143 46.665143 0 0 0-65.828572-65.828572L512 446.464 80.018286 14.336a46.665143 46.665143 0 0 0-65.828572 0 46.665143 46.665143 0 0 0 0 65.682286L446.464 512z" fill="#e98829" p-id="6269"></path></svg>