<?xml version="1.0" standalone="no"?><!DOCTYPE svg PUBLIC "-//W3C//DTD SVG 1.1//EN" "http://www.w3.org/Graphics/SVG/1.1/DTD/svg11.dtd"><svg t="1759038360580" class="icon" viewBox="0 0 1024 1024" version="1.1" xmlns="http://www.w3.org/2000/svg" p-id="4769" xmlns:xlink="http://www.w3.org/1999/xlink" width="16" height="16"><path d="M635.318857 0h309.686857c43.885714 0 78.994286 34.816 78.994286 78.848v619.300571c0 44.032-35.108571 78.994286-78.921143 78.994286h-75.776a31.158857 31.158857 0 0 1-32.329143-31.963428c0-18.066286 13.677714-31.597714 32.036572-31.817143l43.885714-0.658286 18.066286-0.292571 1.609143-0.073143c17.627429-1.682286 24.868571-8.777143 26.550857-27.062857 0.731429-7.533714 1.097143-15.140571 1.097143-22.747429V114.541714c0-9.362286-0.731429-18.797714-2.048-28.086857-1.828571-13.238857-8.557714-19.529143-21.942858-21.211428a177.517714 177.517714 0 0 0-21.211428-1.316572H355.108571a166.034286 166.034286 0 0 0-19.017142 1.170286c-16.822857 1.901714-23.917714 8.850286-24.868572 26.038857-0.804571 15.945143-0.950857 31.963429-1.097143 47.981714l-0.073143 7.826286c-0.219429 19.894857-14.189714 34.523429-32.841142 34.011429-19.017143-0.585143-32.182857-16.749714-31.451429-36.717715 0.512-14.482286 0.512-28.964571 0.438857-43.446857v-21.942857A78.482286 78.482286 0 0 1 324.022857 0.219429C406.308571 0 488.594286 0 570.88 0h64.365714zM388.900571 246.857143h309.76c44.544 0 79.213714 34.816 79.213715 79.652571v617.691429c0 45.056-34.742857 79.725714-79.725715 79.725714H79.872c-45.202286 0-79.725714-34.596571-79.725714-80.164571V326.582857c0-39.497143 26.770286-71.68 65.389714-78.774857 4.388571-0.731429 8.777143-0.877714 13.165714-0.877714h310.272z m0.438858 63.853714h-56.758858l-222.72 0.073143c-7.387429 0-14.848 0.512-22.162285 1.389714-13.165714 1.609143-19.748571 7.68-21.796572 20.772572a180.662857 180.662857 0 0 0-1.974857 26.989714v551.204571c0 7.460571 0.438857 14.921143 1.097143 22.308572 1.462857 15.945143 7.314286 22.528 22.893714 25.161143 6.582857 1.097143 13.385143 1.462857 20.041143 1.462857 187.392 0.146286 374.784 0.146286 562.176 0 7.387429 0 14.848-0.731429 22.162286-1.901714 11.922286-1.974857 17.92-7.826286 19.675428-19.748572 1.389714-9.654857 2.121143-19.382857 2.194286-29.110857V361.252571a266.24 266.24 0 0 0-1.097143-22.308571c-1.462857-18.139429-7.899429-24.868571-25.746285-27.062857a165.741714 165.741714 0 0 0-19.529143-1.097143H389.339429z m-207.725715 236.836572h410.258286a31.817143 31.817143 0 0 0 31.890286-32.036572 32.036571 32.036571 0 0 0-31.890286-31.963428H181.686857a31.817143 31.817143 0 0 0-31.890286 31.963428 32.036571 32.036571 0 0 0 31.890286 32.036572z m0 250.148571h410.258286a31.817143 31.817143 0 0 0 31.890286-32.036571 32.036571 32.036571 0 0 0-31.890286-31.963429H181.686857a31.890286 31.890286 0 0 0-31.890286 31.963429 32.036571 32.036571 0 0 0 31.890286 32.036571z" fill="#e98829" p-id="4770"></path></svg>