<?xml version="1.0" standalone="no"?><!DOCTYPE svg PUBLIC "-//W3C//DTD SVG 1.1//EN" "http://www.w3.org/Graphics/SVG/1.1/DTD/svg11.dtd"><svg t="1760431825311" class="icon" viewBox="0 0 1024 1024" version="1.1" xmlns="http://www.w3.org/2000/svg" p-id="5491" xmlns:xlink="http://www.w3.org/1999/xlink" width="16" height="16"><path d="M919.84 872.52H103.2a27.89 27.89 0 0 1-27.86-27.86V298.87A27.89 27.89 0 0 1 103.2 271h816.64a27.89 27.89 0 0 1 27.86 27.86v545.79a27.89 27.89 0 0 1-27.86 27.87z m-790.47-54h764.29V325H129.37z" p-id="5492" fill="#e6e6e6"></path><path d="M511.35 733c-88.92 0-161.27-72.34-161.27-161.27s72.34-161.27 161.27-161.27 161.27 72.34 161.27 161.27S600.27 733 511.35 733z m0-268.5a107.23 107.23 0 1 0 107.23 107.26 107.35 107.35 0 0 0-107.23-107.23zM264.8 154.49h493.26v54.04H264.8z" p-id="5493" fill="#e6e6e6"></path></svg>