<?xml version="1.0" standalone="no"?><!DOCTYPE svg PUBLIC "-//W3C//DTD SVG 1.1//EN" "http://www.w3.org/Graphics/SVG/1.1/DTD/svg11.dtd"><svg t="1760333587772" class="icon" viewBox="0 0 1024 1024" version="1.1" xmlns="http://www.w3.org/2000/svg" p-id="4721" xmlns:xlink="http://www.w3.org/1999/xlink" width="16" height="16"><path d="M312.475106 767.397647H110.445929a75.896471 75.896471 0 0 1-75.474823-77.522823V86.558118A75.896471 75.896471 0 0 1 110.445929 11.083294h705.957647a75.896471 75.896471 0 0 1 75.474824 75.474824v352.978823a25.178353 25.178353 0 1 1-50.356706 0v-352.978823a25.178353 25.178353 0 0 0-25.118118-25.118118H110.445929a25.178353 25.178353 0 0 0-25.178353 25.118118v603.316706c0 13.914353 11.264 25.178353 25.178353 25.178352h202.029177a25.178353 25.178353 0 0 1 0 50.296471v1.987765z m378.157176 251.904a25.178353 25.178353 0 0 1-23.552-15.962353L581.6064 789.684706l-149.383529 170.887529a25.178353 25.178353 0 0 1-44.272942-16.805647V187.572706a25.178353 25.178353 0 0 1 42.345412-16.745412l554.586353 502.302118a25.178353 25.178353 0 0 1-16.745412 43.971764h-214.437647l87.04 217.569883a25.178353 25.178353 0 0 1-13.974588 32.707765l-126.192941 50.356705a25.539765 25.539765 0 0 1-9.155765 0l-0.783059 1.566118z m-101.014588-302.682353h4.336941a25.178353 25.178353 0 0 1 19.215059 15.600941l91.437177 228.773647 79.811764-31.503058-91.437176-228.833883a25.178353 25.178353 0 0 1 23.612235-34.695529h186.849882L438.2464 244.675765v632.109176l132.156235-151.371294a25.178353 25.178353 0 0 1 18.793412-8.794353h0.421647z" fill="#c99c6f" p-id="4722"></path></svg>